# xmcd
#
# Track frame offsets:
#	150
#	19380
#	38142
#	53232
#	65087
#	81895
#	91940
#	110212
#	130045
#	141037
#	159242
#	173580
#	192477
#	207502
#	222625
#	236140
#	256870
#	278390
#	299557
#	315655
#
# Disc length: 4318 seconds
#
# Revision: 0
# Processed by: cddbd v1.5.1PL0 Copyright (c) Steve Scherf et al.
# Submitted via: audiograbber 1.83.01
#
DISCID=2f10dc14
DTITLE=António Sala - Trinta Anos de Carreira [CD 2)
DYEAR=1996
DGENRE=Pop
TTITLE0=(Onde estão os meus) velhos amigos
TTITLE1=Timor - história de um povo
TTITLE2=Quiereme tal como soy
TTITLE3=Uma canção amiga
TTITLE4=Aquelles ojos verdes
TTITLE5=Come Prima
TTITLE6=Retratos de Lisboa
TTITLE7=Gostei de ti
TTITLE8=Salmo 23
TTITLE9=Os amigos
TTITLE10=Solamente una vez
TTITLE11=Meu amor
TTITLE12=Cantiga de uma lenda antiga
TTITLE13=Meu segredo
TTITLE14=Besame mucho
TTITLE15=Veleiro
TTITLE16=Pecado capital
TTITLE17=Ai Portugal
TTITLE18=A nossa festa
TTITLE19=Parabéns a você
EXTD=
EXTT0=
EXTT1=
EXTT2=
EXTT3=
EXTT4=
EXTT5=
EXTT6=
EXTT7=
EXTT8=
EXTT9=
EXTT10=
EXTT11=
EXTT12=
EXTT13=
EXTT14=
EXTT15=
EXTT16=
EXTT17=
EXTT18=
EXTT19=
PLAYORDER=
